<?xml version="1.0" encoding="UTF-8" standalone="no"?>
<svg width="100" height="100" xmlns="http://www.w3.org/2000/svg">
	<title>Signet Bus</title>
	<desc>https://commons.wikimedia.org/wiki/File:BUS-Logo-BVG.svg</desc>

	<g id="bus" fill-rule="evenodd" transform="scale(.2)">
		<circle cx="250.5" cy="250.5" r="250" fill="#922A7D"/>
		<path d="M474.63 281.6c0 16.35-6.1 29.66-18.27 39.92-12.1 10.18-28.58 15.27-49.41 15.27-12.04 0-22.56-1.2-31.54-3.57a152.32 152.32 0 0 1-25.1-9.25v-39.8h4.1a84.47 84.47 0 0 0 25.98 16.27c9.63 3.8 18.88 5.69 27.73 5.69 2.28 0 5.27-.22 8.99-.67a32.1 32.1 0 0 0 9.08-2.23 21.82 21.82 0 0 0 7.03-5.02c1.89-2 2.83-4.98 2.83-8.91 0-3.65-1.37-6.77-4.1-9.37-2.67-2.67-6.6-4.72-11.82-6.13a289.71 289.71 0 0 0-17.38-4.13 125.44 125.44 0 0 1-17.09-5.01c-12.24-4.54-21.06-10.67-26.46-18.4-5.34-7.8-8.01-17.46-8.01-28.98 0-15.46 6.05-28.06 18.16-37.8 12.18-9.8 27.8-14.71 46.88-14.71 9.57 0 19 1.07 28.32 3.23 9.37 2.08 17.48 4.72 24.31 7.91v38.24h-4c-5.86-5.35-13.05-9.8-21.58-13.37a65.13 65.13 0 0 0-25.98-5.47c-3.12 0-6.25.26-9.37.78a31.72 31.72 0 0 0-8.89 2.68 16.98 16.98 0 0 0-6.54 5.13 11.8 11.8 0 0 0-2.74 7.69c0 4.39 1.47 7.77 4.4 10.15 2.93 2.3 8.46 4.42 16.6 6.35 5.34 1.26 10.45 2.49 15.33 3.68a144.1 144.1 0 0 1 15.92 4.9c11.13 4.17 19.33 9.85 24.6 17.06 5.35 7.14 8.02 16.43 8.02 27.87m-151.57-7.91c0 20.51-5.47 36.23-16.4 47.16-10.94 10.92-27.05 16.38-48.34 16.38-21.3 0-37.4-5.46-48.34-16.38-10.88-10.93-16.31-26.61-16.31-47.05V167.78h37.7v103.57c0 11.52 2.1 20.1 6.34 25.75 4.23 5.65 11.1 8.47 20.6 8.47 9.38 0 16.22-2.71 20.51-8.14 4.37-5.42 6.55-14.12 6.55-26.08V167.78h37.7v105.9m-155.28 9.26c0 8.03-1.43 15.2-4.3 21.52a42.89 42.89 0 0 1-11.62 15.72 51.99 51.99 0 0 1-18.94 10.48c-6.84 2.08-15.53 3.12-26.08 3.12H43.38v-166h56.44c11.72 0 20.28.44 25.68 1.33 5.47.9 10.88 2.87 16.21 5.91a30.07 30.07 0 0 1 12.31 12.94c2.73 5.35 4.1 11.48 4.1 18.39 0 8.03-1.85 15.13-5.57 21.3a37.97 37.97 0 0 1-15.72 14.26v.9c9.5 2.15 17.03 6.61 22.56 13.37 5.6 6.77 8.4 15.69 8.4 26.76zm-38.87-.67c0-5.27-.91-9.33-2.73-12.15-1.76-2.9-4.79-5.05-9.08-6.47-2.93-.96-6.97-1.48-12.11-1.56-5.15-.07-10.52-.1-16.12-.1h-8.2v41.35h2.73c10.55 0 18.1-.03 22.66-.1a29.68 29.68 0 0 0 12.6-2.9c3.9-1.87 6.57-4.32 8-7.37a24.46 24.46 0 0 0 2.25-10.7zm-9.18-67.56c0-2.75-.62-5.5-1.85-8.25a11.62 11.62 0 0 0-6.35-6.13c-2.74-1.19-6.15-1.82-10.25-1.9-4.04-.14-9.74-.22-17.1-.22h-3.51v35.12h5.86c5.92 0 10.97-.11 15.14-.33 4.16-.23 7.45-.97 9.86-2.23 3.38-1.71 5.6-3.9 6.64-6.58a26.64 26.64 0 0 0 1.56-9.48z" fill="#fff"/>
	</g>
</svg>
