<?xml version="1.0" encoding="UTF-8" standalone="no"?>
<svg width="100" height="100" xmlns="http://www.w3.org/2000/svg">
	<title>Signet RufBus</title>
	<desc>© VBB http://www.vbb.de/de/article/ueber-uns/media-service/produktsignets/3306.html</desc>

	<g id="demand-responsive-bus" fill-rule="evenodd">
		<path d="M99.23 49.95A49.44 49.44 0 0 0 49.73.45 49.44 49.44 0 0 0 .25 49.96a49.44 49.44 0 0 0 49.5 49.49 49.44 49.44 0 0 0 49.49-49.5" fill="#922A7D"/>
		<path d="M8.3 77.06l.48.71H24l12.77-20.84h5.76l4.48 20.84h20.05l-9.24-21.85c1.5-.2 1.03-.15 2.56-.6 8.48-2.53 16.35-8.74 19.35-15.07 5.48-11.58-3.1-16.68-15.78-16.68h-21L8.3 77.06zm42.33-43.2l4.1-.03c5.44-.05 11.03.76 7.93 6.68-3.1 5.92-10.6 6.86-16.04 6.91l-4.1.03 8.11-13.6z" fill="#fff"/>
	</g>
</svg>
