<?xml version="1.0" encoding="UTF-8" standalone="no"?>
<svg width="100" height="100" xmlns="http://www.w3.org/2000/svg">
	<title>Signet Fernverkehr</title>
	<desc>© VBB http://www.vbb.de/de/article/ueber-uns/media-service/produktsignets/3306.html</desc>

	<g id="express">
		<path d="M100.06 50.04A50.06 50.06 0 0 0 50.03 0 50.06 50.06 0 0 0 0 50.04a50.06 50.06 0 0 0 50.03 50.04 50.06 50.06 0 0 0 50.03-50.04z" fill="#fff500"/>
		<path clip-rule="evenodd" d="M33.8 63.87c0-1.86 1.66-3.36 3.7-3.36 2.05 0 3.7 1.5 3.7 3.36 0 1.87-1.65 3.37-3.7 3.37-2.04 0-3.7-1.5-3.7-3.37zm25.04 0c0-1.86 1.66-3.36 3.72-3.36 2.04 0 3.7 1.5 3.7 3.36 0 1.87-1.66 3.37-3.7 3.37-2.06 0-3.72-1.5-3.72-3.37zM30.9 55.19s12.78-.8 19.12-.78c6.6.02 19.12.73 19.12.73.83-7.22-.36-12.1-3.05-19.02 0 0-9.78-1.32-16.05-1.33C43.77 34.77 34 36.07 34 36.07c-2.68 6.98-3.89 11.87-3.09 19.12zm43.43 36.32l-1.28-4.13h-7.89v-4.14h-4.25v4.14H39.13v-4.14h-4.25v4.14H27.1l-1.39 4.13h48.6zm-28.01-63.6c0-1.85 1.66-3.37 3.71-3.37 2.04 0 3.7 1.52 3.7 3.37 0 1.86-1.66 3.38-3.7 3.38-2.05 0-3.71-1.52-3.71-3.38zM34.88 79.09l-5.2-6.33C24.58 66 24.81 59 24.78 53.68a58.7 58.7 0 0 1 2.8-19.31c1.6-4.28 5.9-11.55 9.46-12.91 3.76-.87 8.38-1 12.99-1 4.61 0 9.22.13 13 1 3.54 1.36 7.85 8.63 9.45 12.9a59.05 59.05 0 0 1 2.8 19.32c-.04 5.33.2 12.33-4.9 19.08l-5.22 6.33H34.88z" fill="#1f1a17"/>
		<path fill="#1f1a17" d="M52.4 12.66l1.2 4.19h-5.25l-1.21-4.2h-9.67l1.37-4.12h22.47l1.28 4.13z"/>
	</g>
</svg>
