<?xml version="1.0" encoding="UTF-8" standalone="no"?>
<svg width="100" height="100" xmlns="http://www.w3.org/2000/svg">
	<title>Signet ExpressBus</title>
	<desc>https://commons.wikimedia.org/wiki/File:X-Bus_VBB.svg</desc>

	<g id="express-bus">
		<path d="M98.17 49.4A48.72 48.72 0 0 0 49.4.62 48.72 48.72 0 0 0 .63 49.39 48.72 48.72 0 0 0 49.4 98.16 48.72 48.72 0 0 0 98.17 49.4z" fill="#fff"/>
		<path d="M91.37 23.4A49.38 49.38 0 0 0 49.4 0 49.44 49.44 0 0 0 0 49.4c0 9.9 2.86 19.02 8.04 26.97l.09.09 33.14-27.6-.45-25.46h17.77l-1.07 15.63L74.05 23.4h17.32zm7.42 26c0-9.38-2.68-18.23-7.24-25.73l-.09-.09-29.92 24.74.27 28.5H44.03l.9-18.05-19.65 18.05H8.3l.09.17a49.51 49.51 0 0 0 41 21.8 49.44 49.44 0 0 0 49.39-49.4z" fill="#901E78"/>
	</g>
</svg>
