<?xml version="1.0" encoding="UTF-8" standalone="no"?>
<svg width="100" height="100" xmlns="http://www.w3.org/2000/svg">
	<title>Signet Fähre</title>
	<desc>https://commons.wikimedia.org/wiki/File:F%C3%A4hre-Logo-BVG.svg</desc>

	<g id="ferry" fill-rule="evenodd">
		<path d="M98.95 50a48.95 48.95 0 1 1-97.9 0 48.95 48.95 0 0 1 97.9 0z" fill="#fff" fill-rule="nonzero"/>
		<path d="M81.2 88.95c-2.48.88-21.33.49-31.9-2.69-25.77-7.74-36.7-3.11-36.56-3.04a49.88 49.88 0 0 0 68.45 5.73zm4.54-4.15c-9.39 2.05-20.64 1.16-30.4-.64-9.52-2.23-20.23-6.23-26.27-5.73l5.72-26.86h33.64l2.36-11.86H37.2L40.64 23h34.5l2.15-11.57H29L14.86 78.14c-4.36.72-4.9 1.69-4.9 1.69A49.92 49.92 0 0 1 50 .1 49.92 49.92 0 0 1 99.89 50c0 13.53-5.4 25.8-14.16 34.8z" fill="#0080c0"/>
	</g>
</svg>
