<?xml version="1.0" encoding="UTF-8" standalone="no"?>
<svg width="100" height="100" xmlns="http://www.w3.org/2000/svg">
	<title>Signet Regionalverkehr</title>
	<desc>© VBB http://www.vbb.de/de/article/ueber-uns/media-service/produktsignets/3306.html</desc>

	<g id="regional" fill-rule="evenodd">
		<path fill="#D9222A" d="M100.4 50.1L50.61.3.82 50.1l49.8 49.79 49.78-49.8"/>
		<path d="M33.9 53.59c0-2.82-1.65-4.5-4.26-4.94v-.06c2.1-.51 3.93-1.74 3.93-5.1 0-3.1-2.16-4.94-6.6-4.94h-7.91v20.91h8.03c4 0 6.81-1.74 6.81-5.87zm-5.73-8.99c0 1.77-1.22 2.31-2.6 2.31h-1.11v-4.58h1.44c1.31 0 2.27.72 2.27 2.27zm.33 8.57c0 1.59-.93 2.4-2.54 2.4h-1.5v-4.89h1.73c1.47 0 2.31.93 2.31 2.49zm20.95 6.29c-.1-.93-.18-2.19-.18-3.44v-6.74c0-3.2-1.08-5.78-6.57-5.78-2.6 0-4.55.54-5.84 1.01l.18 3.87a8.91 8.91 0 0 1 4.5-1.47c2.12 0 2.93 1.14 2.93 2.13v.48H43.1c-5.42 0-8.03 1.85-8.03 5.33 0 3 1.98 4.97 4.73 4.97 1.9 0 3.12-.78 4.68-2.52 0 .72.12 1.44.18 2.16h4.8zm-4.98-7.04c0 1.47-.27 3.99-2.76 3.99-1.1 0-1.86-.54-1.86-1.92 0-1.83 1.6-2.58 4-2.58h.62v.51zm22.15 7.04V48.53c0-3.45-2.06-5.03-4.73-5.03a4.4 4.4 0 0 0-4.11 2.33h-.1c.07-.57.13-1.29.13-1.91V37h-5.4v22.46h5.4V50.9c0-1.61.6-3.02 1.95-3.02 1.02 0 1.47.72 1.47 2.22v9.37h5.4m17.36-.01V48.53c0-3.45-2.07-5.03-4.74-5.03a4.4 4.4 0 0 0-4.41 2.96h-.06c0-.87-.03-1.98-.12-2.6H69.6c.1.71.18 2 .18 3.17v12.43h5.4V50.9c0-1.61.6-3.02 1.95-3.02 1.02 0 1.47.72 1.47 2.22v9.37H84" fill="#fff"/>
	</g>
</svg>
