<?xml version="1.0" encoding="UTF-8" standalone="no"?>
<svg width="100" height="100" xmlns="http://www.w3.org/2000/svg">
	<title>Signet S-Bahn</title>
	<desc>© VBB http://www.vbb.de/de/article/ueber-uns/media-service/produktsignets/3306.html</desc>

	<g id="suburban" fill-rule="evenodd">
		<path d="M100 50.41c0-27.57-22.43-50-50-50-27.58 0-50 22.43-50 50 0 27.58 22.42 50 50 50 27.57 0 50-22.42 50-50z" fill="#00945A"/>
		<path d="M82.82 63.7c0 12.12-11.76 26.22-31.56 26.22-11.03 0-23.77-4.97-30.74-11.21V62.98c6.6 9.5 18.63 16.81 30.74 16.81 7.42 0 13.38-4.25 13.38-8.77 0-17.08-44.75-6.5-44.75-35.98 0-15.46 15.1-23.78 28.66-23.78 11.3 0 21.43 3.71 29.47 9.95v13.1c-6.96-7.5-17.45-14.1-29.74-14.1-6.96 0-10.94 3.71-10.94 8.05 0 18.26 45.48 5.43 45.48 35.44z" fill="#fff"/>
	</g>
</svg>
